<?xml version="1.0" encoding="utf-8"?>
<!-- Generator: Adobe Illustrator 27.0.1, SVG Export Plug-In . SVG Version: 6.00 Build 0)  -->
<svg version="1.1" id="Capa_1" xmlns="http://www.w3.org/2000/svg" xmlns:xlink="http://www.w3.org/1999/xlink" x="0px" y="0px"
	 viewBox="0 0 595.28 211.54" style="enable-background:new 0 0 595.28 211.54;" xml:space="preserve">
<style type="text/css">
	.st0{fill:#36A9E1;stroke:#36A9E1;stroke-width:8;stroke-miterlimit:10;}
	.st1{fill:#FFFFFF;stroke:#36A9E1;stroke-width:5;stroke-miterlimit:10;}
	.st2{stroke:#000000;stroke-width:0.5;stroke-miterlimit:10;}
	.st3{fill:#FFFFFF;stroke:#FFFFFF;stroke-width:0.5;stroke-miterlimit:10;}
	.st4{fill:#FFFFFF;stroke:#FFFFFF;stroke-width:0.25;stroke-miterlimit:10;}
	.st5{fill:#F39200;stroke:#F39200;stroke-width:8;stroke-miterlimit:10;}
	.st6{fill:#FFFFFF;stroke:#F39200;stroke-width:5;stroke-miterlimit:10;}
	.st7{fill:#E71D73;stroke:#E71D73;stroke-width:8;stroke-miterlimit:10;}
	.st8{fill:#FFFFFF;stroke:#E71D73;stroke-width:5;stroke-miterlimit:10;}
	.st9{fill:#FFFFFF;}
	.st10{fill:#4BAD33;stroke:#3AAA35;stroke-width:8;stroke-miterlimit:10;}
	.st11{fill:#FFFFFF;stroke:#3AAA35;stroke-width:5;stroke-miterlimit:10;}
</style>
<g id="Naming_1">
	<g>
		<g>
			<g>
				<path class="st0" d="M400.47,133.7c0,6.92-1.62,13.14-4.86,18.66c-3.24,5.52-7.97,9.84-14.21,12.96
					c-6.24,3.12-13.63,4.68-22.19,4.68c-10.25,0-18.71-2.13-25.38-6.4c-4.73-3.07-8.57-7.17-11.52-12.3
					c-2.95-5.13-4.43-10.11-4.43-14.95c0-2.81,0.89-5.22,2.66-7.22c1.77-2,4.03-3.01,6.77-3.01c2.22,0,4.1,0.78,5.63,2.34
					c1.54,1.56,2.85,3.88,3.93,6.95c1.32,3.64,2.75,6.69,4.29,9.13c1.53,2.45,3.7,4.46,6.49,6.05c2.79,1.59,6.45,2.38,10.99,2.38
					c6.24,0,11.31-1.6,15.2-4.8c3.9-3.2,5.85-7.2,5.85-11.99c0-3.8-1.05-6.88-3.15-9.25c-2.1-2.37-4.82-4.18-8.15-5.43
					c-3.33-1.25-7.79-2.58-13.36-3.98c-7.47-1.93-13.72-4.18-18.75-6.75c-5.03-2.58-9.03-6.09-11.98-10.54
					c-2.95-4.45-4.43-9.98-4.43-16.59c0-6.3,1.56-11.89,4.68-16.79c3.12-4.89,7.63-8.65,13.54-11.28
					c5.91-2.63,12.85-3.94,20.84-3.94c6.38,0,11.9,0.87,16.55,2.62c4.65,1.74,8.52,4.06,11.59,6.95c3.07,2.89,5.32,5.92,6.73,9.1
					c1.42,3.18,2.13,6.27,2.13,9.29c0,2.76-0.89,5.24-2.66,7.46c-1.77,2.21-3.98,3.32-6.63,3.32c-2.41,0-4.24-0.66-5.49-1.99
					c-1.25-1.33-2.61-3.5-4.08-6.52c-1.89-4.32-4.16-7.69-6.8-10.11c-2.65-2.42-6.9-3.63-12.76-3.63c-5.43,0-9.82,1.32-13.15,3.94
					c-3.33,2.63-5,5.79-5,9.49c0,2.29,0.57,4.27,1.7,5.93c1.13,1.67,2.69,3.1,4.68,4.3c1.99,1.2,3.99,2.13,6.03,2.81
					c2.03,0.68,5.39,1.67,10.07,2.97c5.86,1.51,11.16,3.18,15.91,5c4.75,1.82,8.79,4.03,12.12,6.64c3.33,2.6,5.93,5.89,7.8,9.88
					S400.47,127.92,400.47,133.7z"/>
				<path class="st1" d="M359.18,38.66c-7.8-6.77-19.8-3.08-24.13,6.49c-3.69,8.15,0.78,19.42,1.11,20.02
					c0.51,0.95,5.11,9.27,13.45,9.54c0.69,0.02,5.66,0.1,9.76-3.65C366.48,64.55,367.65,46.02,359.18,38.66z"/>
				<path class="st1" d="M359.93,72.75c-5.61-5.53-7.05-17.06-4.99-23.54c1.02-3.2,2.62-5.26,3.32-6.09
					c4.84-5.74,13.99-8.62,20.63-4.26c4.9,3.22,6.36,9.02,7,11.57c0.44,1.73,2.23,15.56-3.87,22.52
					C376.26,79.53,366.58,79.31,359.93,72.75z"/>
				<ellipse class="st2" cx="367.67" cy="63.21" rx="8.33" ry="9.18"/>
				<ellipse class="st2" cx="346.21" cy="61.1" rx="8.33" ry="9.18"/>
			</g>
			
				<ellipse transform="matrix(0.614 -0.7893 0.7893 0.614 87.2216 291.3478)" class="st3" cx="341.48" cy="56.5" rx="2.34" ry="0.84"/>
			
				<ellipse transform="matrix(0.614 -0.7893 0.7893 0.614 93.9155 308.8651)" class="st3" cx="362.73" cy="58.42" rx="2.34" ry="0.84"/>
		</g>
		<ellipse class="st4" cx="344.79" cy="54.24" rx="0.5" ry="0.55"/>
		<ellipse class="st4" cx="366.12" cy="56.18" rx="0.5" ry="0.55"/>
	</g>
	<g>
		<g>
			<path class="st5" d="M496.22,134.94c0,6.92-1.62,13.14-4.86,18.66c-3.24,5.52-7.97,9.84-14.21,12.96
				c-6.24,3.12-13.63,4.68-22.19,4.68c-10.25,0-18.71-2.13-25.38-6.4c-4.73-3.07-8.57-7.17-11.52-12.3
				c-2.95-5.13-4.43-10.11-4.43-14.95c0-2.81,0.89-5.22,2.66-7.22c1.77-2,4.03-3.01,6.77-3.01c2.22,0,4.1,0.78,5.63,2.34
				c1.54,1.56,2.85,3.88,3.93,6.95c1.32,3.64,2.75,6.69,4.29,9.13c1.53,2.45,3.7,4.46,6.49,6.05c2.79,1.59,6.45,2.38,10.99,2.38
				c6.24,0,11.31-1.6,15.2-4.8c3.9-3.2,5.85-7.2,5.85-11.99c0-3.8-1.05-6.88-3.15-9.25c-2.1-2.37-4.82-4.18-8.15-5.43
				c-3.33-1.25-7.79-2.58-13.36-3.98c-7.47-1.93-13.72-4.18-18.75-6.75c-5.03-2.58-9.03-6.09-11.98-10.54
				c-2.95-4.45-4.43-9.98-4.43-16.59c0-6.3,1.56-11.89,4.68-16.79c3.12-4.89,7.63-8.65,13.54-11.28c5.91-2.63,12.85-3.94,20.84-3.94
				c6.38,0,11.9,0.87,16.55,2.62c4.65,1.74,8.52,4.06,11.59,6.95c3.07,2.89,5.32,5.92,6.73,9.1c1.42,3.18,2.13,6.27,2.13,9.29
				c0,2.76-0.89,5.24-2.66,7.46c-1.77,2.21-3.98,3.32-6.63,3.32c-2.41,0-4.24-0.66-5.49-1.99c-1.25-1.33-2.61-3.5-4.08-6.52
				c-1.89-4.32-4.16-7.69-6.8-10.11c-2.65-2.42-6.9-3.63-12.76-3.63c-5.43,0-9.82,1.32-13.15,3.94c-3.33,2.63-5,5.79-5,9.49
				c0,2.29,0.57,4.27,1.7,5.93c1.13,1.67,2.69,3.1,4.68,4.3c1.99,1.2,3.99,2.13,6.03,2.81c2.03,0.68,5.39,1.67,10.07,2.97
				c5.86,1.51,11.16,3.18,15.91,5c4.75,1.82,8.79,4.03,12.12,6.64c3.33,2.6,5.93,5.89,7.8,9.88S496.22,129.16,496.22,134.94z"/>
			<path class="st6" d="M449.11,36.64c-7.8-6.77-19.8-3.08-24.13,6.49c-3.69,8.15,0.78,19.42,1.11,20.02
				c0.51,0.95,5.11,9.27,13.45,9.54c0.69,0.02,5.66,0.1,9.76-3.65C456.42,62.53,457.59,44,449.11,36.64z"/>
			<path class="st6" d="M457.81,69.64c-5.61-5.53-7.05-17.06-4.99-23.54c1.02-3.2,2.62-5.26,3.32-6.09
				c4.84-5.74,13.99-8.62,20.63-4.26c4.9,3.22,6.36,9.02,7,11.57c0.44,1.73,2.23,15.56-3.87,22.52
				C474.15,76.41,464.46,76.2,457.81,69.64z"/>
		</g>
		<g>
			<ellipse class="st2" cx="442.51" cy="45.94" rx="8.33" ry="9.18"/>
			
				<ellipse transform="matrix(0.614 -0.7893 0.7893 0.614 136.3645 361.5063)" class="st3" cx="437.78" cy="41.34" rx="2.34" ry="0.84"/>
			<ellipse class="st4" cx="441.09" cy="39.08" rx="0.5" ry="0.55"/>
		</g>
		<g>
			<ellipse class="st2" cx="471.9" cy="44.97" rx="8.33" ry="9.18"/>
			
				<ellipse transform="matrix(0.614 -0.7893 0.7893 0.614 148.5481 384.0958)" class="st3" cx="466.96" cy="40.18" rx="2.34" ry="0.84"/>
			<ellipse class="st4" cx="470.35" cy="37.94" rx="0.5" ry="0.55"/>
		</g>
	</g>
	<g>
		<g>
			<path class="st7" d="M210.9,121.98V66.93c0-4.68,0.96-8.2,2.87-10.54c1.91-2.34,4.43-3.51,7.55-3.51c3.26,0,5.85,1.17,7.76,3.51
				c1.91,2.34,2.87,5.86,2.87,10.54v56.3c0,6.4,0.65,11.75,1.95,16.05c1.3,4.29,3.6,7.63,6.91,9.99c3.31,2.37,7.94,3.55,13.89,3.55
				c8.22,0,14.03-2.41,17.44-7.22c3.4-4.81,5.1-12.11,5.1-21.9V66.93c0-4.74,0.94-8.26,2.84-10.58c1.89-2.32,4.42-3.47,7.58-3.47
				c3.16,0,5.73,1.16,7.69,3.47c1.96,2.32,2.94,5.84,2.94,10.58v55.05c0,8.95-0.79,16.42-2.37,22.41
				c-1.58,5.99-4.57,11.24-8.97,15.77c-3.78,3.85-8.18,6.66-13.18,8.43c-5.01,1.77-10.87,2.65-17.58,2.65
				c-7.99,0-14.86-0.95-20.63-2.85c-5.77-1.9-10.47-4.84-14.11-8.82c-3.64-3.98-6.31-9.08-8.01-15.3
				C211.75,138.05,210.9,130.62,210.9,121.98z"/>
			<path class="st8" d="M248.29,112.57c-7.58-8.08-19.24-3.67-23.45,7.74c-3.58,9.71,0.76,23.16,1.07,23.88
				c0.49,1.14,4.96,11.05,13.07,11.37c0.67,0.03,5.5,0.12,9.49-4.36C255.39,143.44,256.53,121.34,248.29,112.57z"/>
			<path class="st8" d="M258.46,151.86c-5.48-6.31-6.88-19.45-4.87-26.84c0.99-3.65,2.56-6,3.24-6.94
				c4.73-6.54,13.67-9.83,20.16-4.86c4.78,3.67,6.21,10.29,6.84,13.19c0.43,1.98,2.18,17.74-3.78,25.68
				C274.42,159.58,264.96,159.33,258.46,151.86z"/>
			<ellipse class="st9" cx="240.13" cy="112.99" rx="1.97" ry="2.17"/>
		</g>
		<g>
			<ellipse class="st2" cx="243.86" cy="120.07" rx="8.33" ry="9.18"/>
			
				<ellipse transform="matrix(0.1442 -0.9895 0.9895 0.1442 95.9729 339.924)" class="st3" cx="244.51" cy="114.48" rx="0.89" ry="2.21"/>
			<ellipse class="st4" cx="240.52" cy="113.63" rx="0.5" ry="0.55"/>
		</g>
		<g>
			<ellipse class="st2" cx="264.58" cy="121.16" rx="8.33" ry="9.18"/>
			
				<ellipse transform="matrix(0.9507 -0.3101 0.3101 0.9507 -22.885 87.4337)" class="st3" cx="263.56" cy="115.7" rx="2.22" ry="0.88"/>
			<ellipse class="st4" cx="268.07" cy="115.33" rx="0.5" ry="0.55"/>
		</g>
	</g>
	<g>
		<g>
			<g>
				<path class="st10" d="M113.55,65.54L154.02,133V64.91c0-4.42,0.86-7.74,2.59-9.95c1.72-2.21,4.05-3.32,6.98-3.32
					c3.02,0,5.41,1.11,7.16,3.32c1.75,2.21,2.62,5.53,2.62,9.95v90.03c0,10.05-3.78,15.07-11.34,15.07c-1.89,0-3.59-0.3-5.1-0.9
					c-1.51-0.6-2.93-1.55-4.25-2.85c-1.32-1.3-2.55-2.82-3.69-4.57c-1.13-1.74-2.27-3.53-3.4-5.35L106.1,89.66v67.07
					c0,4.37-0.92,7.68-2.76,9.92c-1.84,2.24-4.21,3.36-7.09,3.36c-2.98,0-5.36-1.13-7.16-3.4c-1.8-2.26-2.69-5.56-2.69-9.88V68.42
					c0-3.75,0.38-6.69,1.13-8.82c0.9-2.34,2.39-4.26,4.47-5.74c2.08-1.48,4.32-2.23,6.73-2.23c1.89,0,3.51,0.34,4.86,1.01
					c1.35,0.68,2.53,1.59,3.54,2.73c1.02,1.15,2.06,2.63,3.12,4.45C111.31,61.66,112.41,63.56,113.55,65.54z"/>
				<ellipse class="st11" cx="158.41" cy="99.58" rx="14.96" ry="21.82"/>
				<ellipse class="st11" cx="129.42" cy="96.24" rx="17.47" ry="14.79"/>
			</g>
			<g>
				<ellipse class="st2" cx="137.75" cy="95.92" rx="8.33" ry="9.18"/>
				<ellipse class="st2" cx="164.14" cy="96.57" rx="8.33" ry="9.18"/>
			</g>
		</g>
		
			<ellipse transform="matrix(0.0229 -0.9997 0.9997 0.0229 44.9315 236.5341)" class="st3" cx="143.47" cy="95.28" rx="2.43" ry="0.81"/>
		<ellipse class="st4" cx="143.12" cy="99.74" rx="0.5" ry="0.55"/>
		
			<ellipse transform="matrix(0.0229 -0.9997 0.9997 0.0229 70.8697 263.0734)" class="st3" cx="170.02" cy="95.28" rx="2.43" ry="0.81"/>
		<ellipse class="st4" cx="169.66" cy="99.74" rx="0.5" ry="0.55"/>
	</g>
</g>
</svg>
